<svg xmlns="http://www.w3.org/2000/svg" width="46" height="46" viewBox="0 0 48 48"><g><path fill="#4285F4" d="M24 9.5c3.54 0 6.73 1.22 9.24 3.23l6.91-6.91C36.13 2.36 30.45 0 24 0 14.82 0 6.73 5.06 2.69 12.44l8.06 6.26C12.6 13.13 17.88 9.5 24 9.5z"/><path fill="#34A853" d="M46.15 24.55c0-1.64-.15-3.22-.42-4.74H24v9.01h12.44c-.54 2.9-2.18 5.36-4.65 7.01l7.19 5.6C43.98 37.13 46.15 31.36 46.15 24.55z"/><path fill="#FBBC05" d="M10.75 28.69c-1.01-2.9-1.01-6.08 0-8.98l-8.06-6.26C.9 17.18 0 20.48 0 24c0 3.52.9 6.82 2.69 10.25l8.06-6.26z"/><path fill="#EA4335" d="M24 48c6.45 0 12.13-2.13 16.53-5.81l-7.19-5.6c-2.01 1.35-4.59 2.16-7.34 2.16-6.12 0-11.3-3.63-13.25-8.75l-8.06 6.26C6.73 42.94 14.82 48 24 48z"/><path fill="none" d="M0 0h48v48H0z"/></g></svg> 